<mxfile host="app.diagrams.net" modified="2021-01-28T12:44:27.280Z" agent="5.0 (Macintosh; Intel Mac OS X 10_15_4) AppleWebKit/537.36 (KHTML, like Gecko) Chrome/88.0.4324.96 Safari/537.36" etag="-6YOqhzpkFEstfAwxksJ" version="14.2.7" type="github">
  <diagram id="TLzFUHAlMp1SjYv1UOmY" name="Page-1">
    <mxGraphModel dx="901" dy="534" grid="1" gridSize="10" guides="1" tooltips="1" connect="1" arrows="1" fold="1" page="1" pageScale="1" pageWidth="827" pageHeight="1169" math="0" shadow="0">
      <root>
        <mxCell id="0" />
        <mxCell id="1" parent="0" />
        <mxCell id="tXTAQBRWPAYxfKV3fFaE-44" value="" style="rounded=0;whiteSpace=wrap;html=1;" vertex="1" parent="1">
          <mxGeometry x="30" y="530" width="860" height="100" as="geometry" />
        </mxCell>
        <mxCell id="tXTAQBRWPAYxfKV3fFaE-43" value="" style="rounded=0;whiteSpace=wrap;html=1;" vertex="1" parent="1">
          <mxGeometry x="30" y="340" width="860" height="190" as="geometry" />
        </mxCell>
        <mxCell id="tXTAQBRWPAYxfKV3fFaE-42" value="" style="rounded=0;whiteSpace=wrap;html=1;" vertex="1" parent="1">
          <mxGeometry x="30" y="250" width="860" height="90" as="geometry" />
        </mxCell>
        <mxCell id="tXTAQBRWPAYxfKV3fFaE-41" value="" style="rounded=0;whiteSpace=wrap;html=1;" vertex="1" parent="1">
          <mxGeometry x="30" y="155" width="860" height="95" as="geometry" />
        </mxCell>
        <mxCell id="tXTAQBRWPAYxfKV3fFaE-2" value="&lt;span style=&quot;color: rgb(59 , 67 , 81) ; font-family: &amp;#34;sf mono&amp;#34; , &amp;#34;segoe ui mono&amp;#34; , &amp;#34;roboto mono&amp;#34; , &amp;#34;menlo&amp;#34; , &amp;#34;courier&amp;#34; , monospace ; font-size: 13.6px ; text-align: left ; background-color: rgb(247 , 248 , 249)&quot;&gt;shihuo://www.shihuo.cn?route=shflutter&amp;amp;goods_id=608555&amp;amp;need_login=false&amp;amp;page=SHFlutterQAList#{&quot;goods_id&quot;:&quot;608555&quot;,&quot;block&quot;:&quot;question&quot;,&quot;from&quot;:&quot;goodsDetail&quot;, &quot;PE_id&quot;:&quot;12314&quot;}&lt;/span&gt;" style="rounded=0;whiteSpace=wrap;html=1;" vertex="1" parent="1">
          <mxGeometry x="130" y="170" width="620" height="70" as="geometry" />
        </mxCell>
        <mxCell id="tXTAQBRWPAYxfKV3fFaE-3" value="Actor" style="shape=umlActor;verticalLabelPosition=bottom;verticalAlign=top;html=1;outlineConnect=0;" vertex="1" parent="1">
          <mxGeometry x="50" y="170" width="30" height="60" as="geometry" />
        </mxCell>
        <mxCell id="tXTAQBRWPAYxfKV3fFaE-4" value="" style="endArrow=classic;html=1;exitX=0.5;exitY=0.5;exitDx=0;exitDy=0;exitPerimeter=0;entryX=0;entryY=0.5;entryDx=0;entryDy=0;" edge="1" parent="1" source="tXTAQBRWPAYxfKV3fFaE-3" target="tXTAQBRWPAYxfKV3fFaE-2">
          <mxGeometry width="50" height="50" relative="1" as="geometry">
            <mxPoint x="80" y="220" as="sourcePoint" />
            <mxPoint x="130" y="170" as="targetPoint" />
          </mxGeometry>
        </mxCell>
        <mxCell id="tXTAQBRWPAYxfKV3fFaE-7" value="&lt;span style=&quot;color: rgb(59 , 67 , 81) ; font-family: &amp;#34;sf mono&amp;#34; , &amp;#34;segoe ui mono&amp;#34; , &amp;#34;roboto mono&amp;#34; , &amp;#34;menlo&amp;#34; , &amp;#34;courier&amp;#34; , monospace ; font-size: 13.6px ; text-align: left ; background-color: rgb(247 , 248 , 249)&quot;&gt;提取#内容&lt;br&gt;&lt;/span&gt;&lt;span style=&quot;color: rgb(59 , 67 , 81) ; font-family: &amp;#34;sf mono&amp;#34; , &amp;#34;segoe ui mono&amp;#34; , &amp;#34;roboto mono&amp;#34; , &amp;#34;menlo&amp;#34; , &amp;#34;courier&amp;#34; , monospace ; font-size: 13.6px ; text-align: left ; background-color: rgb(247 , 248 , 249)&quot;&gt;{&quot;goods_id&quot;:&quot;608555&quot;,&quot;block&quot;:&quot;question&quot;,&quot;from&quot;:&quot;goodsDetail&quot;, &quot;PE_id&quot;:&quot;12314&quot;}&lt;/span&gt;&lt;span style=&quot;color: rgb(59 , 67 , 81) ; font-family: &amp;#34;sf mono&amp;#34; , &amp;#34;segoe ui mono&amp;#34; , &amp;#34;roboto mono&amp;#34; , &amp;#34;menlo&amp;#34; , &amp;#34;courier&amp;#34; , monospace ; font-size: 13.6px ; text-align: left ; background-color: rgb(247 , 248 , 249)&quot;&gt;&lt;br&gt;&lt;/span&gt;" style="rounded=0;whiteSpace=wrap;html=1;" vertex="1" parent="1">
          <mxGeometry x="174.5" y="270" width="531" height="60" as="geometry" />
        </mxCell>
        <mxCell id="tXTAQBRWPAYxfKV3fFaE-8" value="" style="endArrow=classic;html=1;exitX=0.5;exitY=1;exitDx=0;exitDy=0;entryX=0.5;entryY=0;entryDx=0;entryDy=0;" edge="1" parent="1" source="tXTAQBRWPAYxfKV3fFaE-2" target="tXTAQBRWPAYxfKV3fFaE-7">
          <mxGeometry width="50" height="50" relative="1" as="geometry">
            <mxPoint x="380" y="440" as="sourcePoint" />
            <mxPoint x="440" y="270" as="targetPoint" />
          </mxGeometry>
        </mxCell>
        <mxCell id="tXTAQBRWPAYxfKV3fFaE-15" value="&lt;span&gt;规则一&lt;/span&gt;&lt;br&gt;&lt;span&gt;**_id&lt;/span&gt;" style="rhombus;whiteSpace=wrap;html=1;" vertex="1" parent="1">
          <mxGeometry x="326" y="410" width="80" height="80" as="geometry" />
        </mxCell>
        <mxCell id="tXTAQBRWPAYxfKV3fFaE-16" value="规则二&lt;br&gt;PE_**" style="rhombus;whiteSpace=wrap;html=1;" vertex="1" parent="1">
          <mxGeometry x="456" y="410" width="80" height="80" as="geometry" />
        </mxCell>
        <mxCell id="tXTAQBRWPAYxfKV3fFaE-17" value="解析，遍历keys" style="rounded=0;whiteSpace=wrap;html=1;" vertex="1" parent="1">
          <mxGeometry x="326" y="350" width="210" height="40" as="geometry" />
        </mxCell>
        <mxCell id="tXTAQBRWPAYxfKV3fFaE-18" value="" style="endArrow=classic;html=1;exitX=0.5;exitY=1;exitDx=0;exitDy=0;entryX=0.543;entryY=0.033;entryDx=0;entryDy=0;entryPerimeter=0;" edge="1" parent="1" source="tXTAQBRWPAYxfKV3fFaE-7" target="tXTAQBRWPAYxfKV3fFaE-17">
          <mxGeometry width="50" height="50" relative="1" as="geometry">
            <mxPoint x="439.5" y="330" as="sourcePoint" />
            <mxPoint x="439.5" y="350" as="targetPoint" />
          </mxGeometry>
        </mxCell>
        <mxCell id="tXTAQBRWPAYxfKV3fFaE-19" value="" style="endArrow=classic;html=1;entryX=0.5;entryY=0;entryDx=0;entryDy=0;exitX=0.5;exitY=1;exitDx=0;exitDy=0;" edge="1" parent="1" source="tXTAQBRWPAYxfKV3fFaE-17" target="tXTAQBRWPAYxfKV3fFaE-16">
          <mxGeometry width="50" height="50" relative="1" as="geometry">
            <mxPoint x="440" y="440" as="sourcePoint" />
            <mxPoint x="490" y="390" as="targetPoint" />
          </mxGeometry>
        </mxCell>
        <mxCell id="tXTAQBRWPAYxfKV3fFaE-20" value="" style="endArrow=classic;html=1;entryX=0.5;entryY=0;entryDx=0;entryDy=0;" edge="1" parent="1" target="tXTAQBRWPAYxfKV3fFaE-15">
          <mxGeometry width="50" height="50" relative="1" as="geometry">
            <mxPoint x="430" y="390" as="sourcePoint" />
            <mxPoint x="506" y="420" as="targetPoint" />
          </mxGeometry>
        </mxCell>
        <mxCell id="tXTAQBRWPAYxfKV3fFaE-21" value="&lt;span style=&quot;color: rgb(59 , 67 , 81) ; font-family: &amp;#34;sf mono&amp;#34; , &amp;#34;segoe ui mono&amp;#34; , &amp;#34;roboto mono&amp;#34; , &amp;#34;menlo&amp;#34; , &amp;#34;courier&amp;#34; , monospace ; font-size: 13.6px ; text-align: left ; background-color: rgb(247 , 248 , 249)&quot;&gt;{&quot;goods_id&quot;:&quot;608555&quot;, &quot;PE_id&quot;:&quot;12314&quot;}&lt;/span&gt;" style="rounded=0;whiteSpace=wrap;html=1;" vertex="1" parent="1">
          <mxGeometry x="306" y="565" width="240" height="45" as="geometry" />
        </mxCell>
        <mxCell id="tXTAQBRWPAYxfKV3fFaE-25" value="" style="endArrow=classic;html=1;entryX=0.5;entryY=0;entryDx=0;entryDy=0;" edge="1" parent="1" target="tXTAQBRWPAYxfKV3fFaE-21">
          <mxGeometry width="50" height="50" relative="1" as="geometry">
            <mxPoint x="494" y="490" as="sourcePoint" />
            <mxPoint x="440" y="520" as="targetPoint" />
          </mxGeometry>
        </mxCell>
        <mxCell id="tXTAQBRWPAYxfKV3fFaE-26" value="Y" style="text;html=1;strokeColor=none;fillColor=none;align=center;verticalAlign=middle;whiteSpace=wrap;rounded=0;" vertex="1" parent="1">
          <mxGeometry x="456" y="510" width="40" height="20" as="geometry" />
        </mxCell>
        <mxCell id="tXTAQBRWPAYxfKV3fFaE-27" value="" style="endArrow=classic;html=1;exitX=0.5;exitY=1;exitDx=0;exitDy=0;entryX=0.5;entryY=0;entryDx=0;entryDy=0;" edge="1" parent="1" source="tXTAQBRWPAYxfKV3fFaE-15" target="tXTAQBRWPAYxfKV3fFaE-21">
          <mxGeometry width="50" height="50" relative="1" as="geometry">
            <mxPoint x="504" y="500" as="sourcePoint" />
            <mxPoint x="430" y="560" as="targetPoint" />
          </mxGeometry>
        </mxCell>
        <mxCell id="tXTAQBRWPAYxfKV3fFaE-28" value="Y" style="text;html=1;strokeColor=none;fillColor=none;align=center;verticalAlign=middle;whiteSpace=wrap;rounded=0;" vertex="1" parent="1">
          <mxGeometry x="360" y="510" width="40" height="20" as="geometry" />
        </mxCell>
        <mxCell id="tXTAQBRWPAYxfKV3fFaE-36" value="href地址" style="rounded=0;whiteSpace=wrap;html=1;" vertex="1" parent="1">
          <mxGeometry x="750" y="170" width="120" height="30" as="geometry" />
        </mxCell>
        <mxCell id="tXTAQBRWPAYxfKV3fFaE-37" value="#" style="rounded=0;whiteSpace=wrap;html=1;" vertex="1" parent="1">
          <mxGeometry x="750" y="270" width="120" height="30" as="geometry" />
        </mxCell>
        <mxCell id="tXTAQBRWPAYxfKV3fFaE-38" value="解析" style="rounded=0;whiteSpace=wrap;html=1;" vertex="1" parent="1">
          <mxGeometry x="750" y="350" width="120" height="30" as="geometry" />
        </mxCell>
        <mxCell id="tXTAQBRWPAYxfKV3fFaE-39" value="规则匹配" style="rounded=0;whiteSpace=wrap;html=1;" vertex="1" parent="1">
          <mxGeometry x="750" y="410" width="120" height="30" as="geometry" />
        </mxCell>
        <mxCell id="tXTAQBRWPAYxfKV3fFaE-40" value="biz值" style="rounded=0;whiteSpace=wrap;html=1;" vertex="1" parent="1">
          <mxGeometry x="750" y="565" width="120" height="30" as="geometry" />
        </mxCell>
      </root>
    </mxGraphModel>
  </diagram>
</mxfile>
